<svg width="880" height="260" viewBox="0 0 880 260" fill="none" xmlns="http://www.w3.org/2000/svg">
  <defs>
    <linearGradient id="g1" x1="0" y1="0" x2="1" y2="1">
      <stop offset="0%" stop-color="#7CD65C"/>
      <stop offset="100%" stop-color="#009267"/>
    </linearGradient>
    <linearGradient id="g2" x1="0" y1="1" x2="1" y2="0">
      <stop offset="0%" stop-color="#63D88C"/>
      <stop offset="100%" stop-color="#00A9A5"/>
    </linearGradient>
  </defs>

  <g transform="translate(8 16)">
    <circle cx="92" cy="118" r="84" stroke="url(#g2)" stroke-width="14" fill="none"/>
    <circle cx="92" cy="118" r="16" fill="url(#g1)"/>
    <circle cx="92" cy="118" r="8" fill="#A6E477"/>

    <line x1="92" y1="34" x2="92" y2="202" stroke="#5CC8A2" stroke-width="8" stroke-linecap="round"/>
    <line x1="8" y1="118" x2="176" y2="118" stroke="#5CC8A2" stroke-width="8" stroke-linecap="round"/>
    <line x1="34" y1="60" x2="150" y2="176" stroke="#5CC8A2" stroke-width="8" stroke-linecap="round"/>
    <line x1="34" y1="176" x2="150" y2="60" stroke="#5CC8A2" stroke-width="8" stroke-linecap="round"/>

    <path d="M22 58C20 34 6 24 0 24H28C52 24 68 42 72 66L86 136" stroke="url(#g2)" stroke-width="12" stroke-linecap="round" stroke-linejoin="round" fill="none"/>
    <path d="M94 115C108 77 142 57 176 58C156 88 124 106 94 115Z" fill="url(#g1)" opacity="0.95"/>
    <path d="M146 84C176 92 200 114 210 148" stroke="url(#g1)" stroke-width="12" stroke-linecap="round" fill="none"/>

    <circle cx="208" cy="188" r="34" stroke="url(#g2)" stroke-width="10" fill="none"/>
    <circle cx="208" cy="188" r="12" fill="url(#g1)"/>

    <path d="M124 38C144 24 164 18 186 20C170 38 150 50 126 52" fill="url(#g1)"/>
    <circle cx="148" cy="10" r="20" fill="url(#g2)"/>
  </g>

  <g font-family="Inter, Arial, sans-serif" font-weight="800" fill="#009267">
    <text x="288" y="146" font-size="118" letter-spacing="2">ECHO</text>
    <text x="312" y="236" font-size="92" font-weight="700" fill="#71CF4A" letter-spacing="3">WORK</text>
  </g>
</svg>
