<svg width="540" height="720" viewBox="0 0 540 720" xmlns="http://www.w3.org/2000/svg">
  <rect width="540" height="720" fill="#f5f8fb"/>
  <rect x="34" y="30" width="472" height="660" rx="14" fill="#ffffff" stroke="#d7e2ec"/>
  <rect x="34" y="30" width="472" height="18" rx="8" fill="#0891b2"/>
  <rect x="74" y="76" width="166" height="16" rx="8" fill="#0f172a"/>
  <rect x="74" y="104" width="112" height="10" rx="5" fill="#7b8ea2"/>
  <rect x="362" y="74" width="112" height="46" rx="10" fill="#e8f6fb" stroke="#c5e8f2"/>
  <rect x="376" y="92" width="84" height="10" rx="5" fill="#0891b2"/>
  <rect x="74" y="146" width="400" height="1" fill="#e2eaf2"/>
  <rect x="74" y="174" width="126" height="12" rx="6" fill="#0891b2"/>
  <rect x="74" y="198" width="400" height="10" rx="5" fill="#8fa2b5"/>
  <rect x="74" y="216" width="400" height="10" rx="5" fill="#8fa2b5"/>
  <rect x="74" y="234" width="320" height="10" rx="5" fill="#8fa2b5"/>
  <rect x="74" y="276" width="126" height="12" rx="6" fill="#0891b2"/>
  <rect x="74" y="300" width="400" height="10" rx="5" fill="#8fa2b5"/>
  <rect x="74" y="318" width="400" height="10" rx="5" fill="#8fa2b5"/>
  <rect x="74" y="336" width="294" height="10" rx="5" fill="#8fa2b5"/>
  <rect x="74" y="378" width="126" height="12" rx="6" fill="#0891b2"/>
  <rect x="74" y="402" width="400" height="10" rx="5" fill="#8fa2b5"/>
  <rect x="74" y="420" width="400" height="10" rx="5" fill="#8fa2b5"/>
  <rect x="74" y="438" width="338" height="10" rx="5" fill="#8fa2b5"/>
  <rect x="74" y="486" width="190" height="152" rx="12" fill="#f3f7fb" stroke="#dce8f2"/>
  <rect x="284" y="486" width="190" height="152" rx="12" fill="#f3f7fb" stroke="#dce8f2"/>
  <rect x="98" y="514" width="142" height="10" rx="5" fill="#0891b2"/>
  <rect x="98" y="534" width="142" height="10" rx="5" fill="#98a9ba"/>
  <rect x="98" y="552" width="142" height="10" rx="5" fill="#98a9ba"/>
  <rect x="308" y="514" width="142" height="10" rx="5" fill="#0891b2"/>
  <rect x="308" y="534" width="142" height="10" rx="5" fill="#98a9ba"/>
  <rect x="308" y="552" width="142" height="10" rx="5" fill="#98a9ba"/>
</svg>
