<svg width="540" height="720" viewBox="0 0 540 720" xmlns="http://www.w3.org/2000/svg">
  <rect width="540" height="720" fill="#f8f6fb"/>
  <rect x="0" y="0" width="540" height="132" fill="#1d4ed8"/>
  <circle cx="84" cy="88" r="44" fill="#dbeafe"/>
  <rect x="156" y="54" width="292" height="20" rx="8" fill="#ffffff"/>
  <rect x="156" y="86" width="210" height="12" rx="6" fill="#bfdbfe"/>
  <rect x="52" y="174" width="120" height="12" rx="6" fill="#1d4ed8"/>
  <rect x="52" y="198" width="430" height="10" rx="5" fill="#8e9ab6"/>
  <rect x="52" y="216" width="430" height="10" rx="5" fill="#8e9ab6"/>
  <rect x="52" y="234" width="368" height="10" rx="5" fill="#8e9ab6"/>
  <rect x="52" y="282" width="120" height="12" rx="6" fill="#1d4ed8"/>
  <rect x="52" y="306" width="430" height="10" rx="5" fill="#8e9ab6"/>
  <rect x="52" y="324" width="430" height="10" rx="5" fill="#8e9ab6"/>
  <rect x="52" y="342" width="312" height="10" rx="5" fill="#8e9ab6"/>
  <rect x="52" y="390" width="120" height="12" rx="6" fill="#1d4ed8"/>
  <rect x="52" y="414" width="430" height="10" rx="5" fill="#8e9ab6"/>
  <rect x="52" y="432" width="430" height="10" rx="5" fill="#8e9ab6"/>
  <rect x="52" y="450" width="372" height="10" rx="5" fill="#8e9ab6"/>
  <rect x="52" y="524" width="206" height="142" rx="14" fill="#ffffff" stroke="#d3d9e6"/>
  <rect x="282" y="524" width="200" height="142" rx="14" fill="#ffffff" stroke="#d3d9e6"/>
  <rect x="70" y="548" width="170" height="10" rx="5" fill="#1d4ed8"/>
  <rect x="70" y="568" width="170" height="10" rx="5" fill="#9aa8be"/>
  <rect x="70" y="586" width="170" height="10" rx="5" fill="#9aa8be"/>
  <rect x="300" y="548" width="160" height="10" rx="5" fill="#1d4ed8"/>
  <rect x="300" y="568" width="160" height="10" rx="5" fill="#9aa8be"/>
  <rect x="300" y="586" width="160" height="10" rx="5" fill="#9aa8be"/>
</svg>
